# xmcd
#
# Track frame offsets: 
#        150
#        11085
#        24240
#        37161
#        50913
#        61734
#        75580
#        88045
#        96440
#        109966
#        123446
#        134811
#        151455
#        163722
#
# Disc length: 2354 seconds
#
# Revision: 4
# Processed by: cddbd v1.5.2PL0 Copyright (c) Steve Scherf et al.
# Submitted via: ExactAudioCopy v1.0b4
#
DISCID=c009300e
DTITLE=Various Artist - 4 CD Country Collection - CD 3
DYEAR=1998
DGENRE=Country
TTITLE0=Roger Miller - King of the road
TTITLE1=Conway Twitter - Danny boy
TTITLE2=Merle Haggard - The fightin´ side of me
TTITLE3=Bobby Bare - Marie Laveau
TTITLE4=The Everly Brothers - Devoted to you
TTITLE5=The Kendalls - Crying time
TTITLE6=Bobby Bare - 500 Miles awy from home
TTITLE7=Boxcar Willie - Hey good lookin´
TTITLE8=The Jordanaires - Are you lonesome tonight ?
TTITLE9=T. Graham Brown - I wish that I could hurt that way again
TTITLE10=Mel McDaniel - Stand up
TTITLE11=Lee Greenwood - Ring on her finger, time on her hands
TTITLE12=Merle Haggard - Everbody´s had the blues
TTITLE13=Patsy Cline - Life´s railway to heaven
EXTD=YEAR: 1998
EXTT0=
EXTT1=
EXTT2=
EXTT3=
EXTT4=
EXTT5=
EXTT6=
EXTT7=
EXTT8=
EXTT9=
EXTT10=
EXTT11=
EXTT12=
EXTT13=
PLAYORDER=
